<svg xmlns="http://www.w3.org/2000/svg" xmlns:xlink="http://www.w3.org/1999/xlink" viewBox="0 0 490.59 248.89"><defs><style>.cls-1{fill:url(#linear-gradient);}.cls-2{fill:url(#linear-gradient-2);}.cls-3{fill:url(#linear-gradient-3);}.cls-4{fill:url(#linear-gradient-4);}</style><linearGradient id="linear-gradient" x1="331.37" y1="103.15" x2="472.89" y2="-38.38" gradientUnits="userSpaceOnUse"><stop offset="0" stop-color="#00ff75"/><stop offset="1" stop-color="#40be97"/></linearGradient><linearGradient id="linear-gradient-2" x1="331.37" y1="227.59" x2="472.89" y2="86.07" xlink:href="#linear-gradient"/><linearGradient id="linear-gradient-3" x1="179.04" y1="161.68" x2="284.37" y2="56.35" xlink:href="#linear-gradient"/><linearGradient id="linear-gradient-4" x1="35.78" y1="160.22" x2="136.97" y2="59.03" xlink:href="#linear-gradient"/></defs><g id="Layer_2" data-name="Layer 2"><g id="Layer_1-2" data-name="Layer 1"><path class="cls-1" d="M290.44,0H428.37a62.22,62.22,0,0,1,62.22,62.22v0a62.22,62.22,0,0,1-62.22,62.22H290.44a0,0,0,0,1,0,0V0A0,0,0,0,1,290.44,0Z"/><path class="cls-2" d="M290.44,124.45H428.37a62.22,62.22,0,0,1,62.22,62.22v0a62.22,62.22,0,0,1-62.22,62.22H290.44a0,0,0,0,1,0,0V124.45a0,0,0,0,1,0,0Z"/><rect class="cls-3" x="142.11" width="148.33" height="248.89"/><path class="cls-4" d="M143.11,62.22V248.89H0V0H80.89A62.22,62.22,0,0,1,143.11,62.22Z"/></g></g></svg>